<svg xmlns="http://www.w3.org/2000/svg" xmlns:xlink="http://www.w3.org/1999/xlink" width="2000" zoomAndPan="magnify" viewBox="0 0 1500 1499.999933" height="2000" preserveAspectRatio="xMidYMid meet" version="1.0"><defs><clipPath id="a98a64d77c"><path d="M 6.007812 607 L 894 607 L 894 1494 L 6.007812 1494 Z M 6.007812 607 " clip-rule="nonzero"/></clipPath><clipPath id="8b1a722633"><path d="M 442 6.007812 L 1494 6.007812 L 1494 1059 L 442 1059 Z M 442 6.007812 " clip-rule="nonzero"/></clipPath></defs><g clip-path="url(#a98a64d77c)"><path fill="#003399" d="M 721.785156 1091.765625 L 495.179688 1318.371094 C 451.160156 1362.390625 393.191406 1384.398438 335.53125 1384.398438 C 280.042969 1384.398438 224.863281 1363.941406 182.394531 1322.710938 C 139.613281 1281.171875 115.746094 1225.371094 115.433594 1165.542969 C 115.125 1105.714844 138.066406 1049.605469 180.222656 1007.445312 L 409 778.667969 C 406.832031 761.929688 405.589844 744.878906 405.589844 727.832031 C 405.589844 686.292969 412.410156 645.371094 425.738281 607.242188 L 102.726562 930.257812 C 40.417969 992.566406 6.007812 1075.644531 6.007812 1163.992188 C 6.007812 1251.414062 39.796875 1333.871094 101.175781 1396.179688 C 162.554688 1458.488281 245.011719 1492.898438 333.980469 1493.207031 L 335.222656 1493.207031 C 425.429688 1493.207031 510.058594 1458.488281 573.609375 1394.941406 L 893.523438 1075.023438 C 855.394531 1088.355469 814.785156 1095.175781 772.933594 1095.175781 C 755.574219 1095.175781 738.523438 1093.933594 721.785156 1091.765625 Z M 721.785156 1091.765625 " fill-opacity="1" fill-rule="nonzero"/></g><g clip-path="url(#8b1a722633)"><path fill="#00adef" d="M 1397.265625 103.5 C 1332.785156 39.019531 1248.15625 6.78125 1163.527344 6.78125 C 1078.898438 6.78125 994.269531 39.019531 929.792969 103.5 L 539.199219 494.09375 C 532.378906 500.914062 525.867188 508.042969 519.667969 515.171875 L 519.359375 515.484375 C 518.738281 516.105469 518.117188 517.035156 517.5 517.652344 C 517.5 517.652344 517.5 517.652344 517.1875 517.964844 C 468.519531 576.863281 442.171875 650.332031 442.171875 727.832031 C 442.171875 745.808594 443.71875 763.480469 446.511719 781.148438 C 446.820312 782.078125 446.820312 783.007812 446.820312 783.628906 C 457.980469 850.898438 489.910156 912.585938 538.886719 961.566406 C 587.867188 1010.546875 649.867188 1042.476562 716.824219 1053.636719 C 717.753906 1053.636719 718.6875 1053.945312 719.304688 1053.945312 C 736.664062 1056.734375 754.644531 1058.285156 772.625 1058.285156 C 850.125 1058.285156 923.59375 1031.9375 982.492188 983.265625 C 982.492188 983.265625 982.492188 983.265625 982.800781 982.957031 C 983.421875 982.335938 984.351562 981.714844 984.972656 981.097656 L 985.28125 980.785156 C 992.722656 974.585938 999.542969 968.078125 1006.359375 961.257812 L 1396.953125 570.664062 C 1526.222656 442.015625 1526.222656 232.457031 1397.265625 103.5 Z M 1319.765625 493.785156 L 929.171875 884.378906 C 908.402344 905.148438 883.914062 921.578125 857.5625 932.425781 C 831.214844 943.277344 802.382812 949.167969 772.933594 949.167969 L 771.382812 949.167969 C 711.554688 948.855469 655.757812 924.988281 614.21875 882.207031 C 540.4375 806.257812 533.308594 688.460938 591.585938 602.59375 C 592.519531 600.421875 593.757812 598.253906 595.617188 596.703125 C 595.925781 596.390625 596.238281 596.082031 596.546875 596.082031 C 603.367188 587.09375 610.808594 578.101562 618.867188 570.042969 L 1004.8125 183.167969 C 1090.988281 96.992188 1231.417969 94.820312 1317.597656 178.519531 C 1360.375 220.058594 1384.246094 275.859375 1384.554688 335.6875 C 1384.863281 395.515625 1361.925781 451.625 1319.765625 493.785156 Z M 1319.765625 493.785156 " fill-opacity="1" fill-rule="nonzero"/></g><path fill="#003399" d="M 790.914062 448.835938 L 683.035156 556.714844 C 702.875 552.683594 723.644531 551.132812 744.105469 552.683594 C 796.804688 556.714844 846.402344 579.34375 883.914062 616.851562 C 921.421875 654.363281 944.050781 703.960938 948.082031 756.660156 C 949.632812 777.121094 948.390625 797.890625 944.050781 817.730469 L 1051.929688 709.851562 C 1039.53125 645.0625 1008.222656 586.472656 961.101562 539.664062 C 914.292969 492.542969 855.394531 461.234375 790.914062 448.835938 Z M 790.914062 448.835938 " fill-opacity="1" fill-rule="nonzero"/><path fill="#00adef" d="M 181.773438 491.304688 L 347 535.632812 C 348.550781 535.945312 350.101562 536.253906 351.652344 536.253906 C 359.710938 536.253906 367.152344 530.984375 369.320312 522.613281 C 371.800781 513.003906 366.222656 502.773438 356.300781 500.292969 L 191.074219 455.964844 C 181.464844 453.484375 171.234375 459.066406 168.753906 468.984375 C 166.273438 478.59375 172.164062 488.515625 181.773438 491.304688 Z M 181.773438 491.304688 " fill-opacity="1" fill-rule="nonzero"/><path fill="#00adef" d="M 421.710938 447.90625 C 425.429688 451.625 430.082031 453.175781 434.730469 453.175781 C 439.378906 453.175781 444.03125 451.316406 447.75 447.90625 C 454.878906 440.773438 454.878906 429.304688 447.75 421.867188 L 263.921875 238.039062 C 256.792969 230.910156 245.324219 230.910156 238.191406 238.039062 C 231.0625 245.167969 231.0625 256.636719 238.191406 264.078125 Z M 421.710938 447.90625 " fill-opacity="1" fill-rule="nonzero"/><path fill="#00adef" d="M 499.519531 357.078125 C 501.6875 365.136719 509.128906 370.714844 517.1875 370.714844 C 518.738281 370.714844 520.289062 370.40625 521.839844 370.097656 C 531.449219 367.617188 537.339844 357.386719 534.859375 347.777344 L 490.527344 182.550781 C 488.050781 172.9375 477.820312 167.050781 468.210938 169.527344 C 458.601562 172.007812 452.710938 182.238281 455.191406 191.847656 Z M 499.519531 357.078125 " fill-opacity="1" fill-rule="nonzero"/><path fill="#00adef" d="M 1000.472656 1144.152344 C 997.992188 1134.542969 987.761719 1128.652344 978.152344 1131.132812 C 968.230469 1133.613281 962.652344 1143.84375 965.132812 1153.453125 L 1009.460938 1318.679688 C 1011.632812 1326.742188 1019.070312 1332.320312 1027.128906 1332.320312 C 1028.679688 1332.320312 1030.230469 1332.011719 1031.78125 1331.699219 C 1041.390625 1329.222656 1047.28125 1318.992188 1044.800781 1309.382812 Z M 1000.472656 1144.152344 " fill-opacity="1" fill-rule="nonzero"/><path fill="#00adef" d="M 1078.589844 1053.324219 C 1071.460938 1046.195312 1059.992188 1046.195312 1052.550781 1053.324219 C 1045.421875 1060.457031 1045.421875 1071.925781 1052.550781 1079.054688 L 1236.378906 1262.882812 C 1240.097656 1266.601562 1244.746094 1268.152344 1249.398438 1268.152344 C 1254.046875 1268.152344 1258.695312 1266.292969 1262.417969 1262.882812 C 1269.546875 1255.753906 1269.546875 1244.28125 1262.417969 1237.152344 Z M 1078.589844 1053.324219 " fill-opacity="1" fill-rule="nonzero"/><path fill="#00adef" d="M 1318.214844 1009.925781 L 1152.988281 965.90625 C 1143.378906 963.425781 1133.148438 969.007812 1130.667969 978.925781 C 1128.1875 988.535156 1133.769531 998.765625 1143.6875 1001.246094 L 1308.917969 1045.574219 C 1310.464844 1045.886719 1312.015625 1046.195312 1313.566406 1046.195312 C 1321.625 1046.195312 1329.066406 1040.925781 1331.234375 1032.554688 C 1334.027344 1022.636719 1328.136719 1012.714844 1318.214844 1009.925781 Z M 1318.214844 1009.925781 " fill-opacity="1" fill-rule="nonzero"/></svg>